<mxfile host="app.diagrams.net" modified="2024-03-07T14:44:42.419Z" agent="Mozilla/5.0 (Windows NT 10.0; Win64; x64) AppleWebKit/537.36 (KHTML, like Gecko) Chrome/122.0.0.0 Safari/537.36" version="24.0.1" etag="olGtMbxkgv1tywx0TVtU" type="github">
  <diagram name="第 1 页" id="29Iem-b51OCXDyQncSSv">
    <mxGraphModel>
      <root>
        <mxCell id="0" />
        <mxCell id="1" parent="0" />
      </root>
    </mxGraphModel>
  </diagram>
</mxfile>
